<?xml version="1.0" encoding="UTF-8" standalone="no"?> <svg version="1.1" viewBox="0 0 16 16" xmlns="http://www.w3.org/2000/svg" xmlns:xlink="http://www.w3.org/1999/xlink"><defs><path id="path-2" d="M0.902344,0.195312c-0.195312,-0.195312 -0.511719,-0.195312 -0.707031,0c-0.195312,0.195312 -0.195312,0.511719 0,0.707031l0.707031,0.707031c0.0976562,0.0976562 0.225586,0.146484 0.353516,0.146484c0.12793,0 0.255859,-0.0488281 0.353516,-0.146484c0.195312,-0.195312 0.195312,-0.511719 0,-0.707031l-0.707031,-0.707031Z"></path><path id="path-1" d="M1.5,0h-1c-0.276367,0 -0.5,0.223633 -0.5,0.5c0,0.276367 0.223633,0.5 0.5,0.5h1c0.276367,0 0.5,-0.223633 0.5,-0.5c0,-0.276367 -0.223633,-0.5 -0.5,-0.5Z"></path></defs><g><path d="M4,0c-2.20557,0 -4,1.79443 -4,4c0,2.20557 1.79443,4 4,4c2.20557,0 4,-1.79443 4,-4c0,-2.20557 -1.79443,-4 -4,-4Zm0,7c-1.6543,0 -3,-1.3457 -3,-3c0,-1.6543 1.3457,-3 3,-3c1.6543,0 3,1.3457 3,3c0,1.6543 -1.3457,3 -3,3Z" transform="translate(4, 4)"></path><path d="M0.5,2c0.276367,0 0.5,-0.223633 0.5,-0.5v-1c0,-0.276367 -0.223633,-0.5 -0.5,-0.5c-0.276367,0 -0.5,0.223633 -0.5,0.5v1c0,0.276367 0.223633,0.5 0.5,0.5Z" transform="translate(7.5, 0)"></path><path d="M0.5,0c-0.276367,0 -0.5,0.223633 -0.5,0.5v1c0,0.276367 0.223633,0.5 0.5,0.5c0.276367,0 0.5,-0.223633 0.5,-0.5v-1c0,-0.276367 -0.223633,-0.5 -0.5,-0.5Z" transform="translate(7.5, 14)"></path><use transform="translate(14, 7.5)" xlink:href="#path-1"></use><use transform="translate(0, 7.5)" xlink:href="#path-1"></use><path d="M0.902344,0.195312l-0.707031,0.707031c-0.195312,0.195312 -0.195312,0.511719 0,0.707031c0.0976562,0.0976562 0.225586,0.146484 0.353516,0.146484c0.12793,0 0.255859,-0.0488281 0.353516,-0.146484l0.707031,-0.707031c0.195312,-0.195312 0.195312,-0.511719 0,-0.707031c-0.195312,-0.195312 -0.511719,-0.195313 -0.707031,-1e-07Z" transform="translate(12.0474, 2.14795)"></path><path d="M0.902344,0.195312l-0.707031,0.707031c-0.195312,0.195312 -0.195312,0.511719 0,0.707031c0.0976562,0.0976562 0.225586,0.146484 0.353516,0.146484c0.12793,0 0.255859,-0.0488281 0.353516,-0.146484l0.707031,-0.707031c0.195312,-0.195312 0.195312,-0.511719 0,-0.707031c-0.195312,-0.195312 -0.511719,-0.195312 -0.707031,0Z" transform="translate(2.14795, 12.0474)"></path><use transform="translate(12.0474, 12.0474)" xlink:href="#path-2"></use><use transform="translate(2.14795, 2.14795)" xlink:href="#path-2"></use></g></svg>